<svg width="160" height="160" viewBox="0 0 160 160" fill="none" xmlns="http://www.w3.org/2000/svg">
  <defs>
    <linearGradient id="bg" x1="22" y1="16" x2="142" y2="150" gradientUnits="userSpaceOnUse">
      <stop stop-color="#FDE68A"/>
      <stop offset="0.55" stop-color="#FBCFE8"/>
      <stop offset="1" stop-color="#BFDBFE"/>
    </linearGradient>
    <clipPath id="clip">
      <circle cx="80" cy="80" r="80"/>
    </clipPath>
  </defs>
  <g clip-path="url(#clip)">
    <circle cx="80" cy="80" r="80" fill="url(#bg)"/>

    <path d="M-14 170C4 130 32 112 64 112H96C128 112 156 130 174 170V178H-14V170Z" fill="#1E3A5F"/>
    <path d="M44 168C50 136 63 122 80 122C97 122 110 136 116 168H44Z" fill="#294F7A"/>

    <path d="M64 92H96V111C96 120 88.8 127 80 127C71.2 127 64 120 64 111V92Z" fill="#F7D1BE"/>
    <path d="M54 68C54 52.536 66.536 40 82 40C97.464 40 110 52.536 110 68V80C110 95.464 97.464 108 82 108C66.536 108 54 95.464 54 80V68Z" fill="#FFE4D6"/>

    <path d="M49 66C49 52 58 34 81 34C107 34 116 52 116 66V78C112 74 111 68 111 63C103 67 93 69 82 69C72 69 62 67 54 63V78C51 75 49 71 49 66Z" fill="#D8A53A"/>
    <path d="M55 58C63 44 73 39 84 39C98 39 108 46 114 60C110 56 100 53 90 53H75C67 53 60 55 55 58Z" fill="#F4C95D"/>
    <path d="M53 79C53 64 62 55 75 55H91C104 55 112 64 112 79V88C115 85 117 81 117 75V66C117 49 105 34 83 34C61 34 49 49 49 66V75C49 81 50 85 53 88V79Z" fill="#E7B94C"/>

    <path d="M70 79C72.209 79 74 77.209 74 75C74 72.791 72.209 71 70 71C67.791 71 66 72.791 66 75C66 77.209 67.791 79 70 79Z" fill="#2B2A2A"/>
    <path d="M93 79C95.209 79 97 77.209 97 75C97 72.791 95.209 71 93 71C90.791 71 89 72.791 89 75C89 77.209 90.791 79 93 79Z" fill="#2B2A2A"/>
    <path d="M77 87C79 88.5 84 88.5 86 87" stroke="#D38A7B" stroke-width="2.8" stroke-linecap="round"/>
    <path d="M75 94C78.4 97.4 85.6 97.4 89 94" stroke="#C55A74" stroke-width="3" stroke-linecap="round"/>

    <circle cx="61" cy="86" r="4.5" fill="#F6B3B3" fill-opacity="0.45"/>
    <circle cx="102" cy="86" r="4.5" fill="#F6B3B3" fill-opacity="0.45"/>

    <path d="M58 115C67 126 93 127 102 115" stroke="#DDEBFF" stroke-width="4" stroke-linecap="round"/>
    <path d="M60 112C66 117 74 120 80 120C86 120 94 117 100 112" stroke="#F7FBFF" stroke-width="3" stroke-linecap="round"/>
  </g>
</svg>
